<svg width="640" height="360" viewBox="0 0 640 360" xmlns="http://www.w3.org/2000/svg">
  <defs>
    <linearGradient id="bg2" x1="0" y1="0" x2="1" y2="1">
      <stop offset="0%" stop-color="#020617" />
      <stop offset="100%" stop-color="#111827" />
    </linearGradient>
  </defs>
  <rect width="640" height="360" fill="url(#bg2)" />

  <!-- road -->
  <rect x="0" y="150" width="640" height="60" fill="#020617" />

  <!-- simple car icon (input, no highlighting) -->
  <rect x="260" y="182" width="90" height="26" rx="13" fill="#111827" />
  <rect x="268" y="188" width="50" height="10" rx="3" fill="#F97316" />
  <rect x="320" y="188" width="20" height="10" rx="3" fill="#F97316" />
  <rect x="274" y="200" width="40" height="6" rx="3" fill="#F9FAFB" />
  <rect x="252" y="188" width="12" height="8" rx="2" fill="#1E293B" />
  <rect x="348" y="188" width="12" height="8" rx="2" fill="#1E293B" />

  <!-- traffic light -->
  <rect x="308" y="132" width="8" height="30" rx="2" fill="#111827" />
  <circle cx="312" cy="142" r="6" fill="#4B5563" />
  <circle cx="312" cy="154" r="6" fill="#4B5563" />
  <circle cx="312" cy="166" r="6" fill="#4B5563" />

  <!-- label -->
  <text x="40" y="70" font-family="system-ui, -apple-system, BlinkMacSystemFont, 'Segoe UI', sans-serif" font-size="14" fill="#E5E7EB">
    Before VisionFlow
  </text>
  <text x="40" y="92" font-family="system-ui, -apple-system, BlinkMacSystemFont, 'Segoe UI', sans-serif" font-size="11" fill="#9CA3AF">
    Emergency vehicle present, but lane is not yet prioritised.
  </text>
</svg>

