<svg width="640" height="360" viewBox="0 0 640 360" xmlns="http://www.w3.org/2000/svg">
  <defs>
    <linearGradient id="bg2" x1="0" y1="0" x2="1" y2="1">
      <stop offset="0%" stop-color="#020617" />
      <stop offset="100%" stop-color="#111827" />
    </linearGradient>
  </defs>
  <rect width="640" height="360" fill="url(#bg2)" />
  <rect x="0" y="150" width="640" height="60" fill="#020617" />
  <rect x="260" y="180" width="90" height="30" rx="6" fill="#1F2937" />
  <rect x="258" y="178" width="94" height="34" rx="8" fill="none" stroke="#F97316" stroke-width="2.2" />
  <rect x="270" y="186" width="48" height="8" rx="2" fill="#F97316" />
  <rect x="322" y="186" width="20" height="8" rx="2" fill="#F97316" />
  <rect x="274" y="196" width="40" height="6" rx="1.5" fill="#F9FAFB" />
  <rect x="282" y="170" width="10" height="10" rx="2" fill="#DC2626" />
  <rect x="318" y="170" width="10" height="10" rx="2" fill="#DC2626" />
  <rect x="292" y="164" width="16" height="4" rx="2" fill="#F97316" />
  <rect x="225" y="182" width="26" height="16" rx="4" fill="#1F2937" />
  <rect x="242" y="176" width="8" height="8" rx="2" fill="#3B82F6" />
  <rect x="350" y="182" width="26" height="16" rx="4" fill="#1F2937" />
  <rect x="350" y="176" width="8" height="8" rx="2" fill="#3B82F6" />
  <rect x="308" y="140" width="8" height="26" rx="2" fill="#111827" />
  <circle cx="312" cy="154" r="6" fill="#22C55E" />
  <circle cx="312" cy="144" r="6" fill="#4B5563" />
  <circle cx="312" cy="164" r="6" fill="#4B5563" />
  <rect x="420" y="40" width="80" height="26" rx="13" fill="#0F172A" stroke="#F97316" stroke-width="1.6" />
  <text x="430" y="58" font-family="system-ui, -apple-system, BlinkMacSystemFont, 'Segoe UI', sans-serif" font-size="10" fill="#F9FAFB">
    PRIORITY LANE
  </text>
</svg>

