<svg width="640" height="360" viewBox="0 0 640 360" xmlns="http://www.w3.org/2000/svg">
  <defs>
    <linearGradient id="bg" x1="0" y1="0" x2="1" y2="1">
      <stop offset="0%" stop-color="#020617" />
      <stop offset="100%" stop-color="#111827" />
    </linearGradient>
  </defs>
  <rect width="640" height="360" fill="url(#bg)" />
  <rect x="200" y="0" width="80" height="360" fill="#020617" />
  <rect x="360" y="0" width="80" height="360" fill="#020617" />
  <rect x="0" y="140" width="640" height="80" fill="#020617" />
  <rect x="225" y="150" width="10" height="60" fill="#374151" />
  <rect x="255" y="150" width="10" height="60" fill="#374151" />
  <rect x="375" y="150" width="10" height="60" fill="#374151" />
  <rect x="405" y="150" width="10" height="60" fill="#374151" />
  <rect x="240" y="220" width="46" height="24" rx="4" fill="#1F2937" />
  <rect x="238" y="218" width="50" height="28" rx="6" fill="none" stroke="#4B5563" stroke-width="2" />
  <rect x="248" y="223" width="30" height="8" rx="2" fill="#FACC15" />
  <circle cx="260" cy="230" r="2" fill="#111827" />
  <rect x="350" y="120" width="52" height="26" rx="5" fill="#1F2937" />
  <rect x="348" y="118" width="56" height="30" rx="7" fill="none" stroke="#4B5563" stroke-width="2" />
  <rect x="358" y="124" width="32" height="9" rx="2" fill="#F97316" />
  <circle cx="372" cy="130" r="2" fill="#111827" />
  <rect x="140" y="190" width="40" height="20" rx="4" fill="#1F2937" />
  <rect x="138" y="188" width="44" height="24" rx="6" fill="none" stroke="#4B5563" stroke-width="2" />
  <rect x="145" y="193" width="26" height="7" rx="2" fill="#E5E7EB" />
  <circle cx="157" cy="199" r="1.8" fill="#111827" />
  <rect x="476" y="150" width="40" height="20" rx="4" fill="#1F2937" />
  <rect x="474" y="148" width="44" height="24" rx="6" fill="none" stroke="#4B5563" stroke-width="2" />
  <rect x="481" y="153" width="26" height="7" rx="2" fill="#E5E7EB" />
  <circle cx="493" cy="159" r="1.8" fill="#111827" />
  <rect x="308" y="40" width="8" height="26" rx="2" fill="#111827" />
  <circle cx="312" cy="54" r="6" fill="#22C55E" />
  <circle cx="312" cy="44" r="6" fill="#4B5563" />
  <circle cx="312" cy="64" r="6" fill="#4B5563" />
  <rect x="292" y="290" width="56" height="20" rx="10" fill="#0F172A" stroke="#22C55E" stroke-width="1.5" />
  <circle cx="304" cy="300" r="4" fill="#22C55E" />
  <circle cx="320" cy="300" r="4" fill="#FACC15" />
  <circle cx="336" cy="300" r="4" fill="#EF4444" />
</svg>

