<svg width="640" height="360" viewBox="0 0 640 360" xmlns="http://www.w3.org/2000/svg">
  <defs>
    <linearGradient id="bg6" x1="0" y1="0" x2="1" y2="1">
      <stop offset="0%" stop-color="#020617" />
      <stop offset="100%" stop-color="#020617" />
    </linearGradient>
  </defs>
  <rect width="640" height="360" fill="url(#bg6)" />
  <circle cx="520" cy="60" r="26" fill="#020617" stroke="#1F2937" stroke-width="2" />
  <circle cx="520" cy="60" r="3" fill="#FACC15" />
  <rect x="220" y="0" width="60" height="360" fill="#030712" />
  <rect x="360" y="0" width="60" height="360" fill="#030712" />
  <rect x="0" y="150" width="640" height="60" fill="#030712" />
  <rect x="243" y="208" width="44" height="26" rx="6" fill="none" stroke="#22C55E" stroke-width="2.2" />
  <rect x="250" y="213" width="30" height="8" rx="2" fill="#F9FAFB" />
  <circle cx="262" cy="220" r="2" fill="#020617" />
  <rect x="358" y="138" width="48" height="26" rx="6" fill="none" stroke="#22C55E" stroke-width="2.2" />
  <rect x="364" y="143" width="32" height="8" rx="2" fill="#F9FAFB" />
  <circle cx="378" cy="150" r="2" fill="#020617" />
  <rect x="178" y="168" width="42" height="22" rx="6" fill="none" stroke="#22C55E" stroke-width="2.2" />
  <rect x="184" y="172" width="28" height="7" rx="2" fill="#F9FAFB" />
  <circle cx="196" cy="178" r="2" fill="#020617" />
  <rect x="304" y="60" width="8" height="26" rx="2" fill="#020617" />
  <circle cx="308" cy="74" r="6" fill="#22C55E" />
  <circle cx="308" cy="64" r="6" fill="#4B5563" />
  <circle cx="308" cy="84" r="6" fill="#4B5563" />
  <rect x="420" y="280" width="140" height="28" rx="14" fill="#0F172A" stroke="#4F46E5" stroke-width="1.4" />
  <text x="430" y="298" font-family="system-ui, -apple-system, BlinkMacSystemFont, 'Segoe UI', sans-serif" font-size="10" fill="#E5E7EB">
    low-light: 3 vehicles " 2 plates
  </text>
</svg>

